<?xml version="1.0" encoding="UTF-8"?>
<svg width="700pt" height="700pt" version="1.1" viewBox="0 0 700 700" xmlns="http://www.w3.org/2000/svg" xmlns:xlink="http://www.w3.org/1999/xlink">
 <defs>
  <symbol id="x" overflow="visible">
   <path d="m0.046875 0h-0.015625-0.03125v-0.03125c0.0078125-0.0078125 0.019531-0.015625 0.03125-0.015625h0.015625v0.015625c0-0.0078125-0.0078125-0.015625-0.015625-0.015625l-0.015625 0.015625v0.015625h0.015625 0.015625z"/>
  </symbol>
  <symbol id="c" overflow="visible">
   <path d="m0.03125-0.03125c-0.011719 0-0.015625 0.0078125-0.015625 0.015625v0.015625h-0.015625v-0.03125h0.015625l0.015625-0.015625z"/>
  </symbol>
  <symbol id="a" overflow="visible">
   <path d="m0.046875-0.015625h-0.03125v0.015625h0.015625c0-0.0078125 0.0039062-0.015625 0.015625-0.015625v0.015625h-0.015625-0.03125v-0.015625-0.015625c0.0078125-0.0078125 0.019531-0.015625 0.03125-0.015625v0.015625c0.0078125 0 0.015625 0.0078125 0.015625 0.015625zm-0.015625 0v-0.015625h-0.015625v0.015625z"/>
  </symbol>
  <symbol id="b" overflow="visible">
   <path d="m0.015625-0.015625v0.015625h0.015625v-0.015625zm0.03125 0v0.015625h-0.015625-0.015625-0.015625v-0.015625l0.015625-0.015625h0.015625-0.015625-0.015625 0.015625v-0.015625c0.0078125 0 0.015625 0.0078125 0.015625 0.015625 0.0078125 0 0.015625 0.0078125 0.015625 0.015625z"/>
  </symbol>
  <symbol id="e" overflow="visible">
   <path d="m0.015625-0.046875v0.015625h0.015625-0.015625v0.015625h0.015625v0.015625h-0.015625-0.015625v-0.015625-0.03125z"/>
  </symbol>
  <symbol id="i" overflow="visible">
   <path d="m0.03125-0.03125v-0.015625h0.015625v0.046875h-0.015625-0.015625-0.015625v-0.015625-0.015625l0.015625-0.015625v0.015625h0.015625zm0 0.03125v-0.015625-0.015625h-0.015625v0.015625 0.015625h0.015625z"/>
  </symbol>
  <symbol id="m" overflow="visible">
   <path d="m0.03125 0v-0.015625-0.015625h-0.015625v0.015625 0.015625h0.015625zm-0.015625-0.03125 0.015625-0.015625v0.015625c0.0078125 0 0.015625 0.0078125 0.015625 0.015625l-0.015625 0.015625h-0.015625-0.015625v-0.046875h0.015625z"/>
  </symbol>
  <symbol id="h" overflow="visible">
   <path d="m0-0.03125h0.015625v0.015625l0.015625-0.015625h0.015625l-0.015625 0.03125c0 0.0078125-0.0078125 0.015625-0.015625 0.015625h-0.015625v-0.015625h0.015625z"/>
  </symbol>
  <symbol id="l" overflow="visible">
   <path d="m0.03125-0.046875-0.015625 0.015625v0.015625h0.015625c0.0078125 0 0.015625-0.0039062 0.015625-0.015625h-0.015625v-0.015625zm0 0c0.0078125 0 0.015625 0.0078125 0.015625 0.015625h0.015625c0 0.011719-0.0078125 0.023438-0.015625 0.03125h-0.015625-0.03125v-0.03125c0.0078125-0.0078125 0.019531-0.015625 0.03125-0.015625z"/>
  </symbol>
  <symbol id="w" overflow="visible">
   <path d="m0-0.046875h0.015625v0.046875h-0.015625z"/>
  </symbol>
  <symbol id="k" overflow="visible">
   <path d="m0-0.046875h0.015625v0.015625h0.03125l-0.015625 0.015625 0.015625 0.015625h-0.015625l-0.015625-0.015625v0.015625h-0.015625z"/>
  </symbol>
  <symbol id="g" overflow="visible">
   <path d="m0.03125-0.03125h-0.015625c0.0078125 0.011719 0.015625 0.015625 0.015625 0.015625v0.015625h-0.015625-0.015625v-0.015625 0.015625h0.015625l0.015625-0.015625h-0.015625-0.015625v-0.015625l0.015625-0.015625c0.0078125 0 0.015625 0.0078125 0.015625 0.015625z"/>
  </symbol>
  <symbol id="f" overflow="visible">
   <path d="m0.046875-0.015625v0.015625h-0.015625v-0.015625-0.015625h-0.015625v0.015625 0.015625h-0.015625v-0.03125h0.015625l0.015625-0.015625v0.015625c0.0078125 0 0.015625 0.0078125 0.015625 0.015625z"/>
  </symbol>
  <symbol id="j" overflow="visible">
   <path d="m0-0.046875h0.03125c0.0078125 0 0.015625 0.0078125 0.015625 0.015625l-0.015625 0.015625h-0.015625v0.015625h-0.015625zm0.015625 0v0.015625h0.015625v-0.015625z"/>
  </symbol>
  <symbol id="d" overflow="visible">
   <path d="m0.03125-0.03125h-0.015625v0.015625 0.015625h0.015625v-0.015625-0.015625zm0-0.015625v0.015625c0.0078125 0 0.015625 0.0078125 0.015625 0.015625l-0.015625 0.015625h-0.03125v-0.015625-0.015625c0.0078125-0.0078125 0.019531-0.015625 0.03125-0.015625z"/>
  </symbol>
  <symbol id="v" overflow="visible">
   <path d="m0-0.03125h0.015625v0.015625l0.015625-0.015625h0.015625l-0.015625 0.03125h-0.015625z"/>
  </symbol>
  <symbol id="u" overflow="visible">
   <path d="m0-0.03125h0.015625v0.03125h-0.015625zm0-0.015625h0.015625z"/>
  </symbol>
  <symbol id="t" overflow="visible">
   <path d="m0.03125-0.046875h-0.015625v0.015625h0.015625-0.015625v0.03125h-0.015625v-0.046875h0.015625z"/>
  </symbol>
  <symbol id="s" overflow="visible">
   <path d="m0.046875-0.03125v-0.015625c0.0078125 0 0.015625 0.0078125 0.015625 0.015625v0.015625 0.015625-0.015625c0-0.0078125-0.0078125-0.015625-0.015625-0.015625v0.015625 0.015625h-0.015625v-0.015625-0.015625h-0.015625v0.015625 0.015625h-0.015625v-0.03125h0.015625l0.015625-0.015625v0.015625h0.015625z"/>
  </symbol>
  <symbol id="r" overflow="visible">
   <path d="m0.046875-0.015625v0.015625h-0.015625v-0.015625-0.015625h-0.015625v0.015625 0.015625h-0.015625v-0.046875h0.015625v0.015625l0.015625-0.015625v0.015625c0.0078125 0 0.015625 0.0078125 0.015625 0.015625z"/>
  </symbol>
  <symbol id="q" overflow="visible">
   <path d="m0-0.046875h0.015625l0.03125 0.03125v-0.03125 0.046875h-0.015625l-0.015625-0.03125v0.03125h-0.015625z"/>
  </symbol>
  <symbol id="p" overflow="visible">
   <path d="m0-0.015625v-0.015625h0.015625v0.015625h0.015625v-0.015625h0.015625v0.03125h-0.015625-0.015625-0.015625v-0.015625z"/>
  </symbol>
  <symbol id="o" overflow="visible">
   <path d="m0-0.03125h0.015625v0.03125c0 0.0078125-0.0078125 0.015625-0.015625 0.015625zm0-0.015625h0.015625z"/>
  </symbol>
  <symbol id="n" overflow="visible">
   <path d="m0.03125-0.03125h-0.015625v0.015625 0.015625h0.015625v-0.015625 0.015625h-0.03125v-0.015625-0.015625c0.0078125-0.0078125 0.019531-0.015625 0.03125-0.015625v0.015625z"/>
  </symbol>
 </defs>
 <g>
  <path d="m470.68 101.36-151.91-63.984c-19.82-8.3477-32.137-0.92188-42.695 16.422l-185.65 304.89c-10.59 15.879-14.352 32.211 4.1836 44.16l133.49 86.094c20.863 13.457 43.215 12.684 58.648-10.234l198.18-321.82c16.273-26.426 15.562-42.98-14.238-55.535zm-116.79 326.01c-1.9648 6.8555-9.7422 4.3086-7.8672-2.3828 1.8516-6.6055 9.793-4.3281 7.8672 2.3828zm41.816 8.582c-1.9648 6.8555-9.7422 4.3086-7.8672-2.3828 1.8516-6.6055 9.793-4.3281 7.8672 2.3828zm41.816 8.582c-1.9648 6.8555-9.7422 4.3086-7.8672-2.3828 1.8516-6.6055 9.793-4.3281 7.8672 2.3828zm41.816 8.582c-1.9648 6.8555-9.7422 4.3086-7.8672-2.3828 1.8516-6.6055 9.793-4.3281 7.8672 2.3828zm-64.051-89.902c-1.9336 6.918-9.6367 4.5312-7.7969-2.2227 1.8203-6.6641 9.6914-4.5547 7.7969 2.2227zm41.426 7.6992c-1.9336 6.918-9.6367 4.5312-7.793-2.2227 1.8203-6.6641 9.6914-4.5547 7.793 2.2227zm41.426 7.6992c-1.9336 6.918-9.6406 4.5312-7.7969-2.2227 1.8203-6.6641 9.6914-4.5547 7.7969 2.2227zm-63.27-88.145c-1.9023 6.9805-9.5352 4.7539-7.7227-2.0586 1.7891-6.7266 9.5859-4.7773 7.7227 2.0586zm41.035 6.8203c-1.9023 6.9805-9.5352 4.7539-7.7227-2.0586 1.7891-6.7266 9.5859-4.7773 7.7227 2.0586zm41.035 6.8203c-1.9023 6.9805-9.5352 4.7539-7.7227-2.0586 1.7891-6.7266 9.5859-4.7773 7.7227 2.0586zm-21.844-80.445c-1.8711 7.043-9.4336 4.9805-7.6523-1.8945 1.7578-6.7852 9.4844-5.0039 7.6523 1.8945zm40.645 5.9414c-1.8711 7.043-9.4336 4.9805-7.6523-1.8945 1.7578-6.7852 9.4844-5.0039 7.6523 1.8945zm-21.449-79.566c-1.8359 7.1055-9.332 5.2031-7.5781-1.7305 1.7305-6.8438 9.3789-5.2266 7.5781 1.7305zm40.254 5.0625c-1.8398 7.1055-9.332 5.2031-7.5781-1.7305 1.7305-6.8438 9.3789-5.2266 7.5781 1.7305zm-409.96 198.16c-3.8164 6.0234-10.559 1.3906-6.8789-4.5039 3.6367-5.8164 10.617-1.3945 6.8789 4.5039zm37.707 20.008c-3.8164 6.0234-10.559 1.3906-6.8789-4.5039 3.6367-5.8164 10.617-1.3945 6.8789 4.5039zm37.707 20.008c-3.8164 6.0234-10.559 1.3906-6.8789-4.5039 3.6367-5.8164 10.617-1.3945 6.8789 4.5039zm37.707 20.008c-3.8164 6.0234-10.559 1.3906-6.8789-4.5039 3.6367-5.8164 10.617-1.3945 6.8789 4.5039zm-73.723-123.36c-3.8047 6.0938-10.523 1.6328-6.8555-4.3281 3.6211-5.8828 10.578-1.6406 6.8555 4.3281zm37.582 19.055c-3.8047 6.0938-10.523 1.6328-6.8555-4.3281 3.6211-5.8828 10.578-1.6406 6.8555 4.3281zm37.582 19.055c-3.8047 6.0938-10.523 1.6328-6.8555-4.3242 3.6211-5.8828 10.578-1.6406 6.8555 4.3242zm37.582 19.055c-3.8047 6.0938-10.523 1.6328-6.8555-4.3281 3.6211-5.8828 10.578-1.6406 6.8555 4.3281zm-73.34-120.49c-3.7891 6.1602-10.488 1.8789-6.832-4.1484 3.6094-5.9492 10.543-1.8867 6.832 4.1484zm37.453 18.102c-3.7891 6.1602-10.488 1.8789-6.832-4.1484 3.6094-5.9492 10.543-1.8867 6.832 4.1484zm37.453 18.102c-3.7891 6.1602-10.488 1.8789-6.832-4.1484 3.6094-5.9492 10.543-1.8867 6.832 4.1484zm37.453 18.102c-3.7891 6.1602-10.488 1.8789-6.832-4.1484 3.6094-5.9492 10.543-1.8867 6.832 4.1484zm-72.957-117.63c-3.7773 6.2305-10.453 2.1211-6.8086-3.9727 3.5977-6.0156 10.508-2.1289 6.8086 3.9727zm37.324 17.145c-3.7773 6.2305-10.453 2.1211-6.8086-3.9727 3.5977-6.0156 10.508-2.1289 6.8086 3.9727zm37.324 17.145c-3.7773 6.2305-10.453 2.1211-6.8086-3.9727 3.5977-6.0156 10.508-2.1289 6.8086 3.9727zm37.324 17.145c-3.7773 6.2305-10.453 2.1211-6.8086-3.9727 3.5977-6.0156 10.508-2.1289 6.8086 3.9727zm-72.574-114.77c-3.7656 6.3008-10.418 2.3633-6.7852-3.7969 3.5859-6.082 10.473-2.375 6.7852 3.7969zm37.199 16.191c-3.7656 6.3008-10.418 2.3633-6.7852-3.7969 3.5859-6.082 10.473-2.375 6.7852 3.7969zm37.199 16.191c-3.7656 6.3008-10.418 2.3633-6.7852-3.7969 3.5859-6.082 10.473-2.375 6.7852 3.7969zm37.199 16.191c-3.7656 6.3008-10.418 2.3633-6.7852-3.7969 3.5859-6.082 10.473-2.375 6.7852 3.7969zm-84.488 332.97c-1.5273-0.28516-1.0938-2.6094 0.43359-2.3242l142.81 26.973c27.117 5.1211 37.078 1.6953 43.094-24.832l79.402-350.06c0.33984-1.5156 2.6484-0.99609 2.3047 0.51953l-79.324 349.72c-6.2695 27.641-16.945 32.445-45.676 27.02l-143.04-27.016zm-17.18 17.469c-3.0586-0.57422-2.1875-5.2227 0.87109-4.6484l159.83 29.988c33.57 6.2969 55.648-3.0703 63.336-37.328l80.215-357.35c5.6367-25.113 0.035156-33.16-24.883-37.262l-141.06-23.223c-3.0703-0.5-2.3086-5.168 0.75781-4.668l140.89 23.195c27.73 4.5664 35.215 14.91 28.906 43.02l-80.199 357.28c-8.1211 36.184-32.336 47.828-68.148 41.109l-160.51-30.113zm-207.21-105.95c-1.3086-0.83203-0.039062-2.8242 1.2695-1.9922l129.5 82.648c12.992 8.293 25.164 6.7773 34.086-7.6836l196.33-319.3c0.81641-1.3203 2.8242-0.078126 2.0078 1.2422l-196.38 319.37c-9.5156 15.422-23.121 17.426-37.207 8.4375l-129.61-82.719zm383.98-233.56-198.22 321.88c-16.816 24.988-41.898 26.586-65.031 11.668l-133.6-86.164c-20.227-13.043-18.223-32.945-5.6289-50.668l185.62-304.83c11.66-19.148 26.379-27.656 48.273-18.434l152.14 64.082c32.723 13.781 34.379 33.328 16.438 62.461z"/>
  <use x="70" y="560.214844" xlink:href="#x"/>
  <use x="70.050781" y="560.214844" xlink:href="#c"/>
  <use x="70.085938" y="560.214844" xlink:href="#a"/>
  <use x="70.136719" y="560.214844" xlink:href="#b"/>
  <use x="70.183594" y="560.214844" xlink:href="#e"/>
  <use x="70.21875" y="560.214844" xlink:href="#a"/>
  <use x="70.265625" y="560.214844" xlink:href="#i"/>
  <use x="70.339844" y="560.214844" xlink:href="#m"/>
  <use x="70.390625" y="560.214844" xlink:href="#h"/>
  <use x="70.464844" y="560.214844" xlink:href="#l"/>
  <use x="70.523437" y="560.214844" xlink:href="#w"/>
  <use x="70.546875" y="560.214844" xlink:href="#a"/>
  <use x="70.597656" y="560.214844" xlink:href="#k"/>
  <use x="70.644531" y="560.214844" xlink:href="#g"/>
  <use x="70.6875" y="560.214844" xlink:href="#b"/>
  <use x="70.734375" y="560.214844" xlink:href="#f"/>
  <use x="70.785156" y="560.214844" xlink:href="#i"/>
  <use x="70.835937" y="560.214844" xlink:href="#c"/>
  <use x="70.894531" y="560.214844" xlink:href="#j"/>
  <use x="70.949219" y="560.214844" xlink:href="#b"/>
  <use x="70.996094" y="560.214844" xlink:href="#f"/>
  <use x="71.046875" y="560.214844" xlink:href="#b"/>
  <use x="71.09375" y="560.214844" xlink:href="#g"/>
  <use x="71.136719" y="560.214844" xlink:href="#d"/>
  <use x="71.183594" y="560.214844" xlink:href="#v"/>
  <use x="71.230469" y="560.214844" xlink:href="#g"/>
  <use x="71.273438" y="560.214844" xlink:href="#k"/>
  <use x="71.320312" y="560.214844" xlink:href="#h"/>
  <use x="71.367187" y="560.214844" xlink:href="#u"/>
  <use x="70" y="560.285156" xlink:href="#t"/>
  <use x="70.03125" y="560.285156" xlink:href="#c"/>
  <use x="70.066406" y="560.285156" xlink:href="#d"/>
  <use x="70.113281" y="560.285156" xlink:href="#s"/>
  <use x="70.214844" y="560.285156" xlink:href="#e"/>
  <use x="70.246094" y="560.285156" xlink:href="#r"/>
  <use x="70.296875" y="560.285156" xlink:href="#a"/>
  <use x="70.371094" y="560.285156" xlink:href="#q"/>
  <use x="70.429687" y="560.285156" xlink:href="#d"/>
  <use x="70.480469" y="560.285156" xlink:href="#p"/>
  <use x="70.53125" y="560.285156" xlink:href="#f"/>
  <use x="70.605469" y="560.285156" xlink:href="#j"/>
  <use x="70.65625" y="560.285156" xlink:href="#c"/>
  <use x="70.691406" y="560.285156" xlink:href="#d"/>
  <use x="70.742188" y="560.285156" xlink:href="#o"/>
  <use x="70.765625" y="560.285156" xlink:href="#a"/>
  <use x="70.8125" y="560.285156" xlink:href="#n"/>
  <use x="70.855469" y="560.285156" xlink:href="#e"/>
 </g>
</svg>
